<svg width="18" height="18" viewBox="0 0 18 18" fill="none" xmlns="http://www.w3.org/2000/svg">
<path d="M10.8799 8.99996L16.6132 3.27996C16.8643 3.02889 17.0054 2.68836 17.0054 2.3333C17.0054 1.97823 16.8643 1.6377 16.6132 1.38663C16.3622 1.13556 16.0217 0.994507 15.6666 0.994507C15.3115 0.994507 14.971 1.13556 14.7199 1.38663L8.99992 7.11996L3.27992 1.38663C3.02885 1.13556 2.68832 0.994507 2.33325 0.994507C1.97818 0.994507 1.63766 1.13556 1.38659 1.38663C1.13551 1.6377 0.994463 1.97823 0.994463 2.3333C0.994463 2.68836 1.13551 3.02889 1.38659 3.27996L7.11992 8.99996L1.38659 14.72C1.26161 14.8439 1.16242 14.9914 1.09473 15.1539C1.02704 15.3163 0.992188 15.4906 0.992188 15.6666C0.992188 15.8426 1.02704 16.0169 1.09473 16.1794C1.16242 16.3419 1.26161 16.4893 1.38659 16.6133C1.51054 16.7383 1.658 16.8375 1.82048 16.9052C1.98296 16.9728 2.15724 17.0077 2.33325 17.0077C2.50927 17.0077 2.68354 16.9728 2.84602 16.9052C3.0085 16.8375 3.15597 16.7383 3.27992 16.6133L8.99992 10.88L14.7199 16.6133C14.8439 16.7383 14.9913 16.8375 15.1538 16.9052C15.3163 16.9728 15.4906 17.0077 15.6666 17.0077C15.8426 17.0077 16.0169 16.9728 16.1794 16.9052C16.3418 16.8375 16.4893 16.7383 16.6132 16.6133C16.7382 16.4893 16.8374 16.3419 16.9051 16.1794C16.9728 16.0169 17.0076 15.8426 17.0076 15.6666C17.0076 15.4906 16.9728 15.3163 16.9051 15.1539C16.8374 14.9914 16.7382 14.8439 16.6132 14.72L10.8799 8.99996Z"/>
</svg>